M48
;Layer_Color=9474304
;FILE_FORMAT=4:4
METRIC,LZ
;TYPE=PLATED
T1F00S00C0.3000
T2F00S00C0.7000
T3F00S00C0.7500
T4F00S00C0.7590
T5F00S00C0.8000
T6F00S00C0.8500
T7F00S00C0.9000
T8F00S00C1.0000
T9F00S00C1.0500
T10F00S00C1.2000
T11F00S00C2.5000
T12F00S00C3.5000
%
T01
X00692Y000055
X007045
X00717
X007295
X00742
X007545
X00767
X007795
X00792
X008045
X00817
X008295
X00842
X008545
X00867
X008795
X00892
X009045
X00917
X009295
X00942
X009545
X00967
X006795
X00667
X006545
X00642
X006295
X00617
X006045
X00592
X003045
X00292
X00192
X001795
X00167
X001545
X00142
X001295
X00117
X001045
X00092
X000795
X00067
X000545
X00042
X000295
X0003575Y00018
X0004825
X0006075
X0007325
X0008575
X0009825
X0011075
X0012325
X0013575
X0014825
X00142Y000305
X001295
X00117
X001045
X00092
X000795
X00067
X000545
X00042
X000295
X00017
X0002325Y00043
X0003575
X0004825
X0006075
X0007325
X0008575
X0009825
X0011075
X0012325
X0013575
X00142Y000555
X001295
X00167
X001795
X0018575Y00043
X0017325
X001795Y000305
X00192
X002045
X00217
X002295
X00242
X002545
X00267
X0026075Y00043
X0024825
X0023575
X0022325
X0021075
X00217Y000555
X002295
X00242
X002545
X00267
X0026075Y00068
X0024825
X0023575
X0022325
X0021075
X00217Y000805
X002295
X00242
X002545
X00267
X0026075Y00093
X0024825
X0023575
X0022325
X0021075
X00217Y001055
X002295
X00242
X002545
X00267
X002545Y001305
X00242
X002295
X00217
X0022325Y00143
X0023575
X0024825
X0026075
X00267Y001555
X002545
X00242
X002295
X00217
X0022325Y00168
X0023575
X0024825
X0026075
X00267Y001805
X002545
X00242
X002295
X00217
X0022325Y00193
X0023575
X0024825
X0026075
X00267Y002055
X002545
X00242
X002295
X00217
X002045
X0021075Y00218
X0022325
X0023575
X0024825
X0026075
Y00243
X0024825
X0023575
X0022325
X0021075
X00217Y002555
X002295
X00242
X002545
X00267
X0026075Y00268
X0024825
X0023575
X0022325
X0021075
X00217Y002805
X002295
X00242
X002545
X00267
X0026075Y00293
X0024825
X0023575
X0022325
X0021075
X00217Y003055
X002295
X00242
X002545
X00267
X0026075Y00318
X0024825
X0023575
X0022325
X0021075
X00217Y003305
X002295
X00242
X002545
X00267
X002545Y003555
X00242
X002295
X00217
X0022325Y00368
X0023575
X0024825
X0026075
X0027325
Y00393
X0026075
X0024825
X0023575
X0022325
X0021075
X0019825
Y00368
X0021075
X00217Y003805
X002295
X00242
X002545
Y004055
X00267
X00242
X002295
X00217
X0017325Y00393
X0016075
X0013575
X0012325
X001295Y004055
X00142
Y003805
X001795
X0017325Y00368
Y00343
X00167Y003055
X0017325Y00293
X0016075
X00167Y002805
X001795
X002045
Y003055
Y002555
X001795
Y002305
Y002055
X00167
X0016075Y00218
X00142Y002305
X0013575Y00243
X00142Y002555
X001375Y002725
X00142Y002805
X0013575Y00293
X00142Y003055
X0013575Y00318
X00142Y003305
X00117
Y003555
Y004055
X00092Y003805
X0007325Y00343
X0004825
Y00318
X00017Y003305
Y003555
Y003805
X0002325Y00393
X00017Y004055
Y003055
Y002805
Y002555
X00042
Y002305
Y002055
X00067
X00092
X001045
X0011075Y00193
X0012325
X001295Y002055
X00142
X0012325Y00218
X00117Y002305
X001045
X0009825Y00243
Y00218
X0008575
Y00193
X0009825
X001045Y001805
X00117
X001295
X0013575Y00168
X0012325
X0011075
X00117Y001555
X001295
X0013575Y00143
X00142Y001305
X00117
X001045
X00092
X000795
X00067
X0007325Y00143
X0008575
X0009825
X00092Y001555
X000795
X00067
X0007325Y00168
X00067Y001805
X00092
X00042
Y001555
Y001305
Y001055
X00067
X0007325Y00118
X00067Y000805
X0007325Y00068
X000795Y000555
X00067
X000545
X00042
X000295
X00017
Y000805
X00042
X00017Y001055
Y001305
Y001555
Y001805
Y002055
Y002305
X00117Y002555
Y002805
Y003055
X0009825Y00318
Y00293
X00167Y001805
X001795
X0017325Y00168
X0016075
X001795Y001555
X0021075Y00168
Y00193
Y00143
X0017325Y00118
X00167Y001055
Y000805
X0017325Y00068
X0016075
X002045Y000805
Y000555
X0021075Y00018
X0022325
X0023575
X0024825
X0026075
X0002325
X0032325
X0033575
X0034825
X0036075
X0037325
X0038575
X0039825
X0041075
X0042325
X0043575
X0044825
X0046075
X0047325
X0048575
X0049825
X0051075
X0052325
X0053575
X0054825
X0056075
X0057325
X005795Y000305
X00592
X0059825Y00043
X006045Y000555
X00617
X0062325Y00068
X0061075
Y00093
X0059825
X006045Y001055
X00617
X0062325Y00118
X006295Y001305
X0062325Y00143
X0061075
X0059825
X0058575
X0057325
X0056075
X0054825
X0053575
X0052325
X0051075
X0049825
X0048575
X0047325
X0046075
X0044825
X004545Y001305
X00467
X004795
X00492
X005045
X00517
X005295
X00542
X0054825Y00118
X0053575
X0052325
X0051075
X0049825
X0048575
X0047325
X0046075
X0044825
X0043575
X00442Y001305
X00417
X004045
X00392
X003795
X00367
X003545
X00342
X003295
X00317
X0032325Y00143
X0033575
X0034825
X0036075
X0037325
X0038575
X0039825
X0041075
X004045Y001555
X00392
X003795
X00367
X003545
X00342
X003295
X0033575Y00168
X0034825
X0036075
X0037325
X0038575
X0039825
X0041075
X0043575
X0044825
X004545Y001805
X00442
Y002055
X004295
X00417
X004045
X00392
X003795
X00367
X003545
X00342
X003295
X00317
X003045
X00292
X0029825Y00218
X0031075
X0032325
X0033575
X0034825
X0036075
X0037325
X0038575
X0039825
X0041075
X0042325
X0043575
X0044825
X004545Y002305
X00467
X00492
X005045
X00517
X005295
X00542
X005545
X00567
X005795
X00592
X006045
X00617
X006295
X00642
X0064825Y00243
X0066075
X00667Y002555
X006545
X00642
X006295
X00617
X006045
X00592
X005795
X00567
X005545
X00542
X005295
X00517
X005045
X00492
X004795
X0048575Y00268
X0049825
X0051075
X0052325
X0053575
X0054825
X0056075
X0057325
X0058575
X0059825
X0061075
X0062325
X0063575
X0064825
X0066075
Y00293
X0067325
X006795Y002805
X00642
X006295
X0063575Y00293
X0064825
Y00318
X0066075
X0067325
X006795Y003305
X00667
X006545
X00642
X006295
X00617
X006045
X00592
X005795
X0058575Y00343
X0059825
X0061075
X0062325
X0063575
X0064825
X0066075
X0067325
X006795Y003555
X00667
X006545
X00642
X006295
X00617
X006045
X00592
X005795
X00567
X005545
X00542
X005295
X00517
X0052325Y00343
X0053575
X0054825
X0056075
X0057325
Y00368
X0058575
X0059825
X0061075
X0062325
X0063575
X0064825
X0066075
X0067325
X006795Y003805
X00667
X006545
X00642
X006295
X00617
X006045
X00592
X005795
X00567
X005545
X00542
X0054825Y00368
X0056075
Y00393
X0057325
X0058575
X0059825
X0061075
X0062325
X0063575
X0064825
X0066075
X0067325
X006795Y004055
X00667
X006545
X00642
X006295
X00617
X006045
X00592
X005795
X00567
X00542
X005295
X00517
X005045
X00492
X004795
X00467
X004545
X00442
X004295
X00417
X004045
X00392
X003795
X00367
X003545
X00342
X003295
X00317
X0032325Y00393
X0033575
X0034825
X0036075
X0037325
X0038575
X0039825
X0041075
X0042325
X0043575
X0044825
X0046075
X0047325
X0048575
X0049825
X0051075
X0052325
X0053575
Y00368
X0051075
X0049825
X0048575
X0047325
X0046075
X0044825
X0043575
X0042325
X0041075
X0039825
X0038575
X0037325
X0036075
X0034825
X0033575
X0032325
X003295Y003805
X00342
X003545
X00367
X003795
X00392
X004045
X00417
X004295
X00442
X004545
X00467
X004795
X00492
X005045
X00517
X0051075Y00343
X00517Y003305
X005295
X00542
X005545
Y003055
X00567
X005795
X0058575Y00318
X0059825
X0061075
X0062325
X0063575
X0062325Y00293
X0061075
X0059825
X0058575
X00592Y002805
X005795
X0056075Y00293
X0054825
X0053575
X0052325
X0051075
X0049825
X0048575
X0047325
X0046075
X0044825
X0043575
X0042325
X0041075
X0039825
X0038575
X00392Y002805
X004045
X00417
X004295
X00442
X004545
X0044825Y00268
X0043575
X0042325
X0041075
X0039825
X0038575
X0037325
X0036075
X00367Y002555
X003795
X00392
X004045
X00417
X004295
X00442
X004545
X0044825Y00243
X0043575
X0042325
X0041075
X0039825
X0038575
X0037325
X003795Y002305
X00392
X004045
X00417
X004295
X00442
X00467Y002055
X004795
X0048575Y00218
X0049825
X0051075
X0052325
X0053575
X0054825
X005545Y002055
X00542
X005295
X00517
X0052325Y00193
X0053575
X0054825
X0056075
X0057325
X0058575
X00592Y002055
X006045
X00617
X006295
X0063575Y00218
X0062325
X0061075
Y00243
X0062325
X0063575
X006795Y002305
X00667Y002055
X006545
X0066075Y00193
X00667Y001805
X006795
Y001555
X0067325Y00143
X006795Y001305
X00667Y001055
X006545
X0064825Y00093
X0063575
X00642Y000805
X006295
X0064825Y00068
X0066075
X0067325
X006795Y000805
X00667
X0067325Y00093
X006795Y000555
X00667
X006545
X00642
X0064825Y00043
X0066075
X0067325
X006795Y000305
X00667
X006545
X00642
X006295
X00617
X0062325Y00043
X0063575
Y00018
X0064825
X0066075
X0067325
X0062325
X0061075
X0059825
X00567Y000305
X005545
X00542
X005295
X00517
X005045
X00492
X004795
X00467
X004545
X00442
X004295
X00417
X004045
X00392
X003795
X00367
X003545
X00342
X003295
Y000555
X00342
X003545
X00367
X003795
X00392
X004045
X00417
X004295
X00442
X004545
X00467
X0047325Y00068
X0046075
X0044825
X0043575
X0042325
X0041075
X0039825
X0038575
X0037325
X0036075
X0034825
X0033575
X0032325
X003295Y000805
X00342
X003545
X00367
X003795
X00392
X004045
X00417
X004295
X00442
X004545
X00467
X004795
X00492
X005045
X00517
X005295
X00542
X005545
X00567
X0057325Y00093
X0056075
X0054825
X0053575
X0052325
X0051075
X0049825
X0048575
X0047325
X0046075
X0044825
X0043575
X0042325
X0041075
X0039825
X0038575
X0037325
X0036075
X0034825
X0033575
X0032325
X0031075
X0029825
X0028575
X00292Y001055
X003045
X00317
X003295
X00342
X003545
X00367
X003795
X00392
X004045
X00417
X004295
X0041075Y00118
X0039825
X0038575
X0037325
X0036075
X0034825
X0033575
X0032325
X0031075
X0029825
X0028575
X00292Y001555
X0029825Y00168
X0032325
Y00193
X0033575
X0034825
X0036075
X0037325
X0038575
X0039825
X0041075
X0042325
X0046075
X0047325
X0049825
X0051075
X005045Y001805
X005295
X00542
X005545
Y001555
X00567
X005795
X00592
X006045
X00617
X006295
X0062325Y00168
X0061075
X00617Y001805
X006295
X0062325Y00193
X0061075
X006045Y001805
X0058575Y00168
X00592Y001305
X005795
X0058575Y00118
X0059825
X00592Y001055
X005795
X00567
X005545
X00542
X005295
X00517
X005045
X00492
X004795
Y001555
X00492
X005045
X00517
X005295
X00542
X0057325Y00118
Y00068
X0058575
X0056075
X0054825
X0053575
X00542Y000555
X005545
X00567
X005295
X0051075Y00068
X0049825Y00043
X0048575
X00467Y001555
X0047325Y00168
Y00268
X004795Y003055
X00492
X005045
X0051075Y00318
X0049825
X0048575
X0047325
X0046075
X0044825
X0043575
X0042325
X0041075
X00417Y003055
X004295
X00442
X004545
X0046075Y00343
X0047325
X0048575
X00492Y003555
X004795
X00467
X004545
X00442
X004295
X00417
X004045
X00392
X003795
X00367
X003545
X00342
X003295
X00317
X0032325Y00343
X0033575
X0034825
X0036075
X0037325
X0038575
X0039825
X0041075
X0042325
X0043575
X0044825
X00492Y003305
X005045
X005295Y003055
X00542
X005795Y002055
X006545Y001805
X0066075Y00168
X006545Y001555
X00367Y002305
X003545
X00342
X003295
X00317
X003045
X00292
X0028575Y00218
Y00193
X0029825
X0031075
Y00243
X0032325
X0033575
Y00268
X0032325
X003295Y002805
X00342
X003545
X0036075Y00293
X0034825
X0033575
X0032325
X0031075
X0029825
X0028575
X00292Y003055
X003045
X00317
X003295
X00342
X003545
X00367
X003795
X0038575Y00318
X0037325
X0036075
X0034825
X0033575
X0032325
X0031075
X0029825
X0028575
X00292Y003305
X003045
X00317
X003295
X00342
X003545
X00367
X003795
X00392
X004045
Y003055
X003795Y002805
X00292
Y002555
X0029825Y00343
X0031075
X0028575
Y00368
X0029825
X00292Y003805
X0029825Y00393
X003045Y000805
X00317
X00292
X0029825Y00068
X0028575
X00292Y000555
X003045
X0029825Y00043
X0068575
X0069825
X0071075
X0072325
X0073575
X0074825
X0076075
X00767Y000555
X0077325Y00068
X0076075
X0074825
Y00093
X0076075
X0077325
X0078575
X0079825
X0081075
X00817Y001055
X008045
X00792
X007795
X00767
X007545
X00742
X007295
X00717
X0072325Y00118
X0071075
X00717Y001305
X007045
X0071075Y00143
X0072325
X00717Y001555
X007045
X0071075Y00168
X0069825
X0068575
Y00193
X0069825
X0071075
X0072325
X007295Y001805
X00742
X007545
X00767
X007795
X00792
X008045
X00817
X0081075Y00193
X0079825
X0078575
X0077325
X0076075
X00767Y002055
X007795
X00792
X008045
X0081075Y00218
X0082325
X0083575
X0084825
X0086075
X0087325
X008795Y002055
X00892
X0089825Y00193
X0088575
X0087325
X0086075
X0084825
X0083575
X00842Y002055
X008545
X00867
Y002305
X008545
X00842
X008295
X00817
X008045
X0081075Y00243
X0082325
X0083575
X0084825
X00842Y002555
X008295
X00817
X008045
X00792
X007795
X0078575Y00268
X0079825
X0081075
X0082325
X00817Y002805
X008045
X00792
X007795
X00767
X007545
X0076075Y00293
X0077325
X0078575
X0079825
X00792Y003055
X007795
X00767
X007545
X0076075Y00318
X0077325
X00767Y003305
X007545
X00742
X0074825Y00343
X0073575
X0072325
X007295Y003555
X00742
X00767
X007795
X00792
X008045
X00817
X008295
X00842
X008545
X00867
X008795
X00892
X009045
X0091075Y00343
X0092325
X009295Y003305
X00917
X009045
X00892
X008795
X00867
X008545
X00842
X008295
X00817
X008045
X00792
X0079825Y00343
X0081075
X0082325
X0083575
X0084825
X0086075
X0087325
X0088575
X0089825
Y00368
X0088575
X0087325
X0086075
X0084825
X0083575
X0082325
X0081075
X0079825
X0078575
X0077325
X0076075
X00767Y003805
X007795
X00792
X008045
X00817
X008295
X00842
X008545
X00867
X008795
X0087325Y00393
X0086075
X0084825
X0083575
X0082325
X0081075
X0079825
X0078575
X0077325
X0076075
X0074825
X0073575
X00742Y004055
X007545
X00767
X007795
X00792
X008045
X00817
X008295
X00842
X008545
X00892
X009045
X00917
X009295
X00942
X009545
X00967
X009795
X0098575Y00393
X0097325
X0096075
X0094825
X0093575
X0092325
X0091075
X0089825
X00917Y003805
X009295
X00942
X009545
X00967
X009795
X0098575Y00368
X0097325
X0096075
X0094825
X0093575
X0092325
X00942Y003555
X009545
X00967
X009795
X0098575Y00343
X0097325
X0096075
X0094825
Y00318
X0093575
X0092325
X0091075
X0089825
X0088575
X0087325
X0086075
X0084825
X0083575
X0082325
X0081075
X00817Y003055
X008295
X00842
X008545
X00867
X008795
X00892
X009045
X00917
X009295
X00942
X009545
X0096075Y00293
X0097325
X00967Y002805
X009545
X00942
X009295
X00917
X009045
X00892
X008795
X00867
X008545
X00842
X0084825Y00293
X0086075
X0087325
X0088575
X0089825
X0091075
X0092325
X0093575
X0094825
Y00268
X0096075
X0097325
X00967Y002555
X009545
X00942
X009295
X00917
X009045
X00892
X008795
X00867
X0087325Y00268
X0088575
X0089825
X0091075
X0092325
X0093575
Y00243
X0094825
X0096075
X0097325
X00967Y002305
X009545
X00942
X009295
X00917
X009045
X00892
X0089825Y00243
X0091075
X0092325
Y00218
X0093575
X0094825
X0096075
X0097325
X00967Y002055
X009545
X00942
X009295
X00917
X0091075Y00218
X00917Y001805
X009045
X00892
X008795
X00867
X008545
X00842
X0084825Y00168
X0086075
X0087325
X0088575
X0089825
X0091075
X0092325
X009295Y001555
X00942
X0093575Y00143
X0092325
X0091075
X0089825
X0088575
X0087325
X0086075
X0084825
X0083575
X00842Y001305
X008545
X00867
X008795
X0087325Y00118
X0086075
X0084825
X0083575
X00842Y001055
X008545
X00867
X0086075Y00093
X0084825
X0083575
X00842Y000805
X008545
X00867
X0087325Y00068
X0086075
X0084825
X0083575
X00842Y000555
X008545
X00867
X008795
X00892
X009045
X00917
X009295
X00942
X009545
X00967
X009795
X0098575Y00068
X0097325
X0096075
X0094825
X0093575
X00942Y000805
X009545
X00967
X009795
X0097325Y00093
X0096075
X0094825
X009545Y001055
X00967
Y001305
X0097325Y00143
X00967Y001555
X0097325Y00168
X0096075
X00967Y001805
X009545
X00942
X0094825Y00193
X0096075
X0097325
X0093575
X00917Y001555
X009045
X00892
X008795
X00867
X008545
X00817
X008045
X00792
X007795
X00767
X007545
X00742
X0074825Y00168
X0076075
X0077325
X0078575
X0079825
X0081075
Y00143
X0079825
X0078575
X0077325
X0076075
X0074825
Y00118
X0077325
X0078575
X0079825
X0081075
X00817Y001305
X008045
X00792
X007795
Y000805
X00767
X008045
X0081075Y00068
X00817Y000555
X008045
X0081075Y00043
X0079825
X00792Y000305
X00767
X00742
X007295
X00717
X007045
X00692
X0069825Y00018
X0071075
X0072325
X0073575
X007295Y000555
X00717
X0072325Y00068
X0071075
X007045Y000805
X0072325Y00093
X00692Y001055
X0069825Y00143
X0068575
X007045Y001805
X00717
X007045Y002055
X0072325Y00218
X0073575
X0074825
X0076075
X0077325
X0078575
X007795Y002305
X00767
X007545
X0076075Y00243
X0074825
X007545Y002555
X0076075Y00268
X0077325
X0078575Y00243
X0079825
X008295Y002055
X007545
X00717Y002305
X007295Y002555
X0072325Y00268
X0071075
X0069825
X0068575
X00692Y002805
X007045
X00717
X007295
Y003055
X0072325Y00318
X0071075
X0069825
X0068575
X00692Y003305
X007045
X0068575Y00343
X00692Y003555
X0069825Y00368
X0071075
X0072325
X00717Y003805
X007045
X00692
X0069825Y00393
X0068575
X00692Y004055
X00717
X007295
X00742Y003805
X007545
X00717Y003555
X0068575Y00368
Y00293
X0069825
X0071075
X0074825
Y00318
X0078575Y00343
X0083575Y00293
X0086075Y00268
X0088575Y00243
X009295Y001305
X00942
X0094825Y00118
Y00043
X0096075
X0097325
X0098575
X009795Y000305
X00967
X009545
X00942
X009295
X00917
X009045
X00892
X008795
X00867
X0087325Y00043
X0088575
X0089825
X0091075
X0092325
X0093575
Y00018
X0094825
X0096075
X0097325
X0098575
X0092325
X0091075
X0089825
X0088575
X0087325
X0086075Y00043
X0084825
X0083575
X00842Y000305
X0068575Y00018
Y00068
Y00218
Y00243
X00692Y002555
X0097325Y00318
X0098575
X009795Y003305
X00967
X0097325Y00418
X0098575
X009795Y004305
X00967
X009545
X00942
X009295
X00917
X009045
X00892
X008795
X00867
X0087325Y00443
X0088575
X0089825
X0091075
X0092325
X0093575
X0094825
X0096075
X0097325
X0098575
X009795Y004555
X00967
X009545
X00942
X009295
X00917
X009045
X00892
X008795
X00867
X008545
X00842
X0084825Y00468
X0086075
X0087325
X0088575
X0089825
X0091075
X0092325
X0093575
X0094825
X0096075
X0097325
X0098575
X009795Y004805
X00967
X009545
X00942
X009295
X00917
X009045
X00892
X008795
X00867
X008545
X00842
X008295
X00817
X0082325Y00493
X0083575
X0084825
X0086075
X0087325
X0088575
X0089825
X0091075
X0092325
X0093575
X0094825
X0096075
X0097325
X0098575
X009795Y005055
X00967
X009545
X00942
X009295
X00917
X009045
X00892
X008795
X00867
X008545
X00842
X008295
X00817
X008045
X00792
X0079825Y00518
X0081075
X0082325
X0083575
X0084825
X0086075
X0087325
X0088575
X0089825
X0091075
X0092325
X0093575
X0094825
X0096075
X0097325
X0098575
X009795Y005305
X00967
X009545
X00942
X009295
X00917
X009045
X00892
X008795
X00867
X008545
X00842
X008295
X00817
X008045
X00792
X007795
X00767
X0077325Y00543
X0078575
X0079825
X0081075
X0082325
X0083575
X0084825
X0086075
X0087325
X0088575
X0089825
X0091075
X0092325
X0093575
X0094825
X0096075
X0097325
X0098575
X009795Y005555
X00967
X009545
X00942
X009295
X00917
X009045
X00892
X008795
X00867
X008545
X00842
X008295
X00817
X008045
X00792
X007795
X00767
X007545
X00742
X0074825Y00568
X0076075
X0077325
X0078575
X0079825
X0081075
X0082325
X0083575
X0084825
X0086075
X0087325
X0088575
X0089825
X0091075
X0092325
X0093575
X0094825
X0096075
X0097325
X0098575
X009795Y005805
X00967
X009545
X00942
X009295
X00917
X009045
X00892
X008795
X00867
X008545
X00842
X008295
X00817
X008045
X00792
X007795
X00767
X007545
X00742
X007295
X00717
X0072325Y00593
X0073575
X0074825
X0076075
X0077325
X0078575
X0079825
X0081075
X0082325
X0083575
X0084825
X0086075
X0087325
X0088575
X0089825
X0091075
X0092325
X0093575
X0094825
X0096075
X0097325
X0098575
X009795Y006055
X00967
X009545
X00942
X009295
X00917
X009045
X00892
X008795
X00867
X008545
X00842
X008295
X00817
X008045
X00792
X007795
X00767
X007545
X00742
X007295
X00717
X007045
X00692
X0069825Y00618
X0071075
X0072325
X0073575
X0074825
X0076075
X0077325
X0078575
X0079825
X0081075
X0082325
X0083575
X0084825
X0086075
X0087325
X0088575
X0089825
X0091075
X0092325
X0093575
X0094825
X0096075
X0097325
X0098575
X009795Y006305
X00967
X009545
X00942
X009295
X00917
X009045
X00892
X008795
X00867
X008545
X00842
X008295
X00817
X008045
X00792
X007795
X00767
X007545
X00742
X007295
X00717
X007045
Y006555
X00692
X0069825Y00668
X0071075
X00717Y006805
X007295
X0073575Y00693
X0072325
X0071075
X0069825
X007045Y007055
X00717
X007295
X00742
X007545
X0076075Y00718
X0074825
X0073575
X0072325
X007295Y007305
X00742
X007545
X00767
X007795
X0078575Y00743
X0077325
X0076075
X0074825
X007545Y007555
X00767
X007795
X00792
X008045
X0081075Y00768
X0079825
X0078575
X0077325
X007795Y007805
X00792
X008045
X00817
X008295
X0083575Y00793
X0082325
X0081075
X0079825
X0076075
X0074825
X0073575
X0072325
X0071075
X0069825
X0068575
X00692Y007805
X007045
X00717
X007295
X00742
X007545
X0073575Y00768
X0072325
X0071075
X0069825
X0068575
X00692Y007555
X007045
X00717
X007295
X0071075Y00743
X0069825
X0068575
X00692Y007305
X007045
X0068575Y00718
X00692Y006805
X007045
X0068575Y00668
Y00643
X0072325
X0073575
X0074825
X0076075
X0077325
X0078575
X0079825
X0081075
X0082325
X0083575
X0084825
X0086075
X0087325
X0088575
X0089825
X0091075
X0092325
X0093575
X0094825
X0096075
X0097325
X0098575
X009795Y006555
X00967
X009545
X00942
X009295
X00917
X009045
X00892
X008795
X00867
X008545
X00842
X008295
X00817
X008045
X00792
X007795
X00767
X007545
X00742
X007295
X0074825Y00668
X0076075
X0077325
X0078575
X0079825
X0081075
X0082325
X0083575
X0084825
X0086075
X0087325
X0088575
X0089825
X0091075
X0092325
X0093575
X0094825
X0096075
X0097325
X0098575
X009795Y006805
X00967
X009545
X00942
X009295
X00917
X009045
X00892
X008795
X00867
X008545
X00842
X008295
X00817
X008045
X00792
X007795
X00767
X007545
X0077325Y00693
X0078575
X0079825
X0081075
X0082325
X0083575
X0084825
X0086075
X0087325
X0088575
X0089825
X0091075
X0092325
X0093575
X0094825
X0096075
X0097325
X0098575
X009795Y007055
X00967
X009545
X00942
X009295
X00917
X009045
X00892
X008795
X00867
X008545
X00842
X008295
X00817
X008045
X00792
X007795
X0079825Y00718
X0081075
X0082325
X0083575
X0084825
X0086075
X0087325
X0088575
X0089825
X0091075
X0092325
X0093575
X0094825
X0096075
X0097325
X0098575
X009795Y007305
X00967
X009545
X00942
X009295
X00917
X009045
X00892
X008795
X00867
X008545
X00842
X008295
X00817
X008045
X0082325Y00743
X0083575
X0084825
X0086075
X0087325
X0088575
X0089825
X0091075
X0092325
X0093575
X0094825
X0096075
X0097325
X0098575
X009795Y007555
X00967
X009545
X00942
X009295
X00917
X009045
X00892
X008795
X00867
X008545
X00842
X008295
X0084825Y00768
X0086075
X0087325
X0088575
X0089825
X0091075
X0092325
X0093575
X0094825
X0096075
X0097325
X0098575
X009795Y007805
X00967
X009545
X00942
X009295
X00917
X009045
X00892
X008795
X00867
X008545
X0087325Y00793
X0088575
X0089825
X0091075
X0092325
X0093575
X0094825
X0096075
X0097325
X0098575
X0096075Y00418
X0094825
X0093575
X0092325
X0091075
X0089825
X0088575
X0087325
X0084825
X0083575
X0082325
X0081075
X0079825
X0078575
X0077325
X0076075
X0074825
X0073575
X0072325
X0071075
X00717Y004305
X007295
X00742
X007545
X00767
X007795
X00792
X008045
X00817
X008295
X0082325Y00443
X0081075
X0079825
X0078575
X0077325
X0076075
X0074825
X0073575
X0072325
X0071075
X0069825
X0068575
X00692Y004555
X007045
X00717
X007295
X00742
X007545
X00767
X007795
X00792
X008045
X0079825Y00468
X0078575
X0077325
X0076075
X0074825
X0073575
X0072325
X0071075
X0069825
X0068575
X00692Y004805
X007045
X00717
X007295
X00742
X007545
X00767
X007795
X0077325Y00493
X0076075
X0074825
X0073575
X0072325
X0071075
X0069825
X0068575
X00692Y005055
X007045
X00717
X007295
X00742
X007545
X0074825Y00518
X0073575
X0072325
X0071075
X0069825
X0068575
X00692Y005305
X007045
X00717
X007295
X0072325Y00543
X0071075
X0069825
X0068575
X00692Y005555
X007045
X0069825Y00568
X0068575
X0072325
X0073575
X0074825Y00543
X0076075
X0077325Y00518
X0078575
X0079825Y00493
X0081075
X0082325Y00468
X0083575
X0084825Y00443
X0086075
X007045Y004305
X00692
X0069825Y00593
X0071075
X006795Y006055
Y006305
X00667
X006545
X00642
X006295
X0063575Y00618
X0064825
X0066075
X006545Y006055
X00642
X006295
X0062325Y00618
X0059825
X0058575
X0057325
X0056075
X0054825
X0053575
X0052325
X0051075
X00517Y006305
X005295
X00542
X005545
X00567
X005795
X00592
X006045
X0061075Y00643
X0059825
X0058575
X0057325
X0056075
X0054825
X0053575
X0052325
X0051075
X0049825
X0048575
X00492Y006555
X005045
X00517
X005295
X00542
X005545
X00567
X005795
X00592
X006045
X00617
X006295
X0063575Y00668
X0062325
X0061075
X0059825
X0058575
X0057325
X0056075
X0054825
X0053575
X0052325
X0051075
X0049825
X0048575
X0047325
X0046075
X0044825
X0043575
X0042325
X0041075
X0039825
X0038575
X0037325
X0036075
X0034825
X0033575
X0032325
X0031075
X00317Y006805
X003295
X00342
X003545
X00367
X003795
X00392
X004045
X00417
X004295
X00442
X004545
X00467
X004795
X00492
X005045
X00517
X005295
X00542
X005545
X00567
X005795
X00592
X006045
X00617
X006295
X00642
X006545
X0066075Y00693
X0064825
X0063575
X0062325
X0061075
X0059825
X0058575
X0057325
X0056075
X0054825
X0053575
X0052325
X0051075
X0049825
X0048575
X0047325
X0046075
X0044825
X0043575
X0042325
X0041075
X0039825
X0038575
X0037325
X0036075
X0034825
X0033575
X0032325
X003295Y007055
X00342
X003545
X00367
X003795
X00392
X004045
X00417
X004295
X00442
X004545
X00467
X004795
X00492
X005045
X00517
X005295
X00542
X005545
X00567
X005795
X00592
X006045
X00617
X006295
X00642
X006545
X00667
X006795
X0067325Y00718
X0066075
X0064825
X0063575
X0062325
X0061075
X0059825
X0058575
X0057325
X0056075
X0054825
X0053575
X0052325
X0051075
X0049825
X0048575
X0047325
X0046075
X0044825
X0043575
X0042325
X0041075
X0039825
X0038575
X0037325
X0036075
X0034825
X0033575
X0032325
X003295Y007305
X00342
X003545
X00367
X003795
X00392
X004045
X00417
X004295
X00442
X004545
X00467
X004795
X00492
X005045
X00517
X005295
X00542
X005545
X00567
X005795
X00592
X006045
X00617
X006295
X00642
X006545
X00667
X006795
X0067325Y00743
X0066075
X0064825
X0063575
X0062325
X0061075
X0059825
X0058575
X0057325
X0056075
X0054825
X0053575
X0052325
X0051075
X0049825
X0048575
X0047325
X0046075
X0044825
X0043575
X0042325
X0041075
X0039825
X0038575
X0037325
X0036075
X0034825
X0033575
X00342Y007555
X003545
X00367
X003795
X00392
X004045
X00417
X004295
X00442
X004545
X00467
X004795
X00492
X005045
X00517
X005295
X00542
X005545
X00567
X005795
X00592
X006045
X00617
X006295
X00642
X006545
X00667
X006795
X0067325Y00768
X0066075
X0064825
X0063575
X0062325
X0061075
X0059825
X0058575
X0057325
X0056075
X0054825
X0053575
X0052325
X0051075
X0049825
X0048575
X0047325
X0046075
X0044825
X0043575
X0042325
X0041075
X0039825
X0038575
X0037325
X0036075
X0034825
X0033575
X0032325
X0031075
X0029825
X0028575
X00292Y007805
X003045
X00317
X003295
X00342
X003545
X00367
X003795
X00392
X004045
X00417
X004295
X00442
X004545
X00467
X004795
X00492
X005045
X00517
X005295
X00542
X005545
X00567
X005795
X00592
X006045
X00617
X006295
X00642
X006545
X00667
X006795
X0067325Y00793
X0066075
X0064825
X0063575
X0062325
X0061075
X0059825
X0058575
X0057325
X0056075
X0054825
X0053575
X0052325
X0051075
X0049825
X0048575
X0047325
X0046075
X0044825
X0043575
X0042325
X0041075
X0039825
X0038575
X0037325
X0036075
X0034825
X0033575
X0032325
X0031075
X0029825
X0028575
X00292Y007555
X003045
X00317
X003295
X0029825Y00743
X0028575
X00292Y007305
X003045
X0029825Y00718
X0028575
X00292Y007055
X003045
X0029825Y00693
X0028575
X00292Y006805
X003045Y006555
X00317
X003295
Y006305
X00342
X003545
X00367
X003795
X00392
X004045
X00417
X004295
X00442
X004545
X00467
X0047325Y00618
X0046075
X0044825
X0043575
X0042325
X0041075
X0039825
X0038575
X0037325
X0036075
X0034825
X0033575
X0032325
X0031075
X0029825
X003045Y006305
X00317
Y006055
X003295
X00342
X003545
X00367
X003795
X00392
X004045
X00417
X004295
X00442
X004545
X00467
X004795
X00492
X00517
X005295
X00542
X005545
X00567
X005795
X00592
X006045
Y005805
X00592
X005795
X00567
X005545
X00542
Y005555
X005295
X00517
X005045
X00492
X004795
X00467
X004545
X00442
X004295
X0043575Y00568
X0044825
X0046075
X0047325
X0048575
X0049825
X0051075
X0052325
X00517Y005805
X005045
X00492
X004795
X00467
X004545
X00442
X004295
X00417
X004045
X00392
X003795
X0038575Y00568
X0039825
X0042325
X0043575Y00543
X0044825
X0046075
X0047325
X0048575
X0049825
X0051075
X0052325
X0053575
X0054825
X005545Y005305
X00567
X0057325Y00518
X0056075
X0054825
X0053575
X0052325
X0051075
X0049825
X0048575
X0047325
X0046075
X0044825
X0043575
X0042325
X0041075
X0039825
X0038575
X0037325
X0036075
X0034825
X0033575
X0032325
X0031075
X003045Y005305
X00292
X0029825Y00543
X0031075
X00317Y005555
X003295
X0033575Y00568
X0032325
X0031075
X0029825
X0028575
X00292Y005805
X003045
X00317
X003295
X00342
X003545
X0036075Y00593
X0034825
X0033575
X0032325
X0031075
X0029825
X0028575
X003045Y006055
X00292Y006305
Y005555
X003045
X0033575Y00543
X0034825
X0036075
X0037325
X0038575
X00392Y005305
X003795
X00367
X003545
X00342
X003295
Y005055
X00342
X003545
X00367
X003795
X00392
X004045
X00417
X004295
X00442
X004545
X00467
X004795
X00492
X005045
X00517
X005295
X00542
X005545
X00567
X0057325Y00493
X0056075
X0054825
X0053575
X0052325
X0051075
X0049825
X0048575
X0047325
X0046075
X0044825
X0043575
X0042325
X0041075
X0039825
X0038575
X0037325
X0036075
X0034825
X0033575
X0032325
X003295Y004805
X00342
X003545
X00367
X003795
X00392
X004045
X00417
X004295
X00442
X004545
X00467
X004795
X00492
X005045
X00517
X005295
X00542
X005545
X00567
Y004555
X005795
X00592
X0059825Y00468
X006045Y004805
X0059825Y00493
X0063575
X0064825
X0066075
X0067325
X006795Y005055
X00667
X006545
X00642
X006295
X0063575Y00518
X0064825
X0066075
X0067325
X006795Y005305
X00667
X006545
X00642
X006295
X0063575Y00543
X0064825
X0066075
X0067325
X006795Y005555
X00667
X006545
X00642
X006295
X0062325Y00543
Y00518
X006045Y005305
Y005555
X00592
X005795
X00567
X0057325Y00568
X0058575
X0059825
X00615Y005775
X006295Y005805
X006545
X00667
X006795
X0067325Y00568
X0066075
X0064825
Y00643
X0066075
X0067325
X006795Y006555
X00667
X006545
X0067325Y00668
X006795Y006805
Y004805
X00667
X006545
X00642
Y004555
X006295
X00617
X0062325Y00468
Y00443
X0063575
X0064825
X006545Y004305
X00667
X0067325Y00418
X0066075
X0064825
X0063575
X0062325
X0061075
X0059825
X0058575
X00592Y004305
X006045
X00617
X006295
X00642
X0061075Y00443
X0058575
X0057325
X0056075
X0054825
X0053575
X0052325
X0051075
X0049825
X0048575
X0047325
X0046075
X0044825
X0043575
X00442Y004555
X004545
X00467
X004795
X00492
X005045
X00517
X005295
X00542
X005545
Y004305
X00567
X0056075Y00418
X0054825
X0053575
X0052325
X0051075
X0049825
X0048575
X0047325
X0046075
X0044825
X0043575
X0042325
X0041075
X0039825
X0038575
X0037325
X0036075
X0034825
X0033575
X0032325
Y00443
X0031075
X0029825
X0028575
X00292Y004555
X003045
X00317
X003295
X0033575Y00468
X0034825
Y00443
X0036075
X0037325
X0038575
X00392Y004305
X003795
X00367
X003545
X00342
X003045
X00292
X0029825Y00418
X0028575
X00292Y004805
X0029825Y00493
X0032325Y00468
X00367Y004555
X003795
X004295
Y004305
X00442
X004545
X00467
X004795
X00492
X005045
X00517
X005295
X00542
Y005305
X005295
X00517
X005045
X00492
X004795
X00467
X004545
X00442
X004295
X003795Y005555
X00367
X003545
X0036075Y00568
X0037325
X00367Y006555
X00392
X004045
X00417
X004295
X00442
X004545
X00467
X004795
X00492Y006305
X005045
X0056075Y00568
X0058575Y00543
X0066075Y00468
X0067325
X006795Y004555
X00667
X00417Y004305
X00267
X002545
X00242
X002295
X00217
X0022325Y00443
X0023575
X0024825
X0026075
X0027325
Y00418
X0026075
X0024825
X0023575
X0022325
X0021075
X0019825
Y00443
X0021075
Y00468
X0022325
X0023575
X0024825
X0026075
X00267Y004805
X002795
Y005055
X00267
X002545
X00242
X002295
X00217
X002045
X00192
X001795
X00167
X0017325Y00493
X0018575
X001795Y004805
X002045
X00217
X002295
X00242
X002545
X0026075Y00493
X0024825
X0023575
X0022325
X0021075
Y00518
X0022325
X0023575
X0024825
X0026075
X00267Y005305
X002795
Y005555
X00267
X002545
X00242
X002295
X00217
X002045
X00192
X001795
X00167
X0017325Y00568
X0018575
X0019825
X0021075
X0022325
X0023575
X0024825
X0026075
X0027325
X002795Y005805
X00267
X002545
X00242
X002295
X00217
X002045
X00192
X001795
X00167
X0017325Y00593
X0018575
X0019825
X0021075
X002045Y006055
X00192
X0019825Y00618
X0021075
X0022325
X0023575
X0024825
X0026075
X0027325
X002795Y006305
X00267
X002545
X00242
X002295
X00217
X0023575Y00643
X0024825
Y00668
X0026075
X0027325
X002795Y006805
X00267
X002545
X00242
X002295
X00217
X002045
X00192
X001795
X00167
X001545
X00142
X001295
X00117
X0012325Y00693
X0013575
X0014825
X0016075
X0017325
X0018575
X0019825
X0021075
X0022325
X0023575
X0024825
X0026075
X0027325
X002795Y007055
X00267
X002545
X00242
X002295
X00217
X002045
X00192
X001795
X00167
X001545
X00142
X001295
X00117
X001045
X00092
X0009825Y00718
X0011075
X0012325
X0013575
X0014825
X0016075
X0017325
X0018575
X0019825
X0021075
X0022325
X0023575
X0024825
X0026075
X0027325
X002795Y007305
X00267
X002545
X00242
X002295
X00217
X002045
X00192
X001795
X00167
X001545
X00142
X001295
X00117
X001045
X00092
X000795
X00067
X0007325Y00743
X0008575
X0009825
X0011075
X0012325
X0013575
X0014825
X0016075
X0017325
X0018575
X0019825
X0021075
X0022325
X0023575
X0024825
X0026075
X0027325
X002795Y007555
X00267
X002545
X00242
X002295
X00217
X002045
X00192
X001795
X00167
X001545
X00142
X001295
X00117
X001045
X00092
X000795
X00067
X000545
X00042
X000295
X00017
X0002325Y00768
X0003575
X0004825
X0006075
X0007325
X0008575
X0009825
X0011075
X0012325
X0013575
X0014825
X0016075
X0017325
X0018575
X0019825
X0021075
X0022325
X0023575
X0024825
X0026075
X0027325
X002795Y007805
X00267
X002545
X00242
X002295
X00217
X002045
X00192
X001795
X00167
X001545
X00142
X001295
X00117
X001045
X00092
X000795
X00067
X000545
X00042
X000295
X00017
X0002325Y00793
X0003575
X0004825
X0006075
X0007325
X0008575
X0009825
X0011075
X0012325
X0013575
X0014825
X0016075
X0017325
X0018575
X0019825
X0021075
X0022325
X0023575
X0024825
X0026075
X0027325
X002795Y006555
X00267
X0023575Y00668
X0022325
X0021075
X0019825
X0018575
X0017325
X0016075
X0014825
X0013575
X0012325
X001295Y006555
X00142
X001545
X00167
X001795
X00192
X002045
X0019825Y00643
X0018575
X0017325
X0016075
X00167Y006305
X001795
X0017325Y00618
X0016075
X0014825
X0013575
X0012325
X0011075
X0009825
X0008575
X0007325
X0006075
X0004825
X000545Y006305
Y006555
X00067
X000795
X00092
X001045
X0009825Y00668
X0008575
X0007325
X0006075
X0004825
X0003575
X0002325
X000295Y006805
X00042
X000545
X00067
X000795
X0007325Y00693
X0006075
X0004825
X0003575
X0002325
X000295Y007055
X00042
X000545
X0004825Y00718
X0003575
X0002325
X000295Y007305
X0004825Y00743
X0006075
X0007325Y00718
X0008575
X0009825Y00693
X0011075
X00117Y006305
X001295
X00142
X001545
Y006055
X00142
X001295
X00117
X001045
X00092
X000795
X00067
X000545
X0006075Y00593
X0007325
X0008575
X0009825
X0011075
X0012325
X0013575
X0014825
X00142Y005805
X001295
X00117
X001045
X00092
X000795
X00067
X000545
X0006075Y00568
X0007325
X0008575
X0009825
X0011075
X0012325
X0013575
X00142Y005555
X001295
X00117
X001045
X00092
X000795
X0008575Y00543
X0009825
X0011075
X0012325
Y00518
X0013575
X00142Y005305
X00167
X001795
X00192
X002045
X00217
X002295
X00242
X002545
X0026075Y00543
X0024825
X0023575
X0022325
X0021075
X0023575Y00593
X0024825
X0026075
X0027325
X00267Y006055
X002545
X00242
X0016075Y00568
Y00493
X0013575
X00142Y004805
X001295
Y004555
X00117
Y004305
X001045
X00092
X0009825Y00443
X0008575
X0007325
X0009825Y00418
X0011075
X0012325
X00142Y004305
X0013575Y00443
X001545Y004555
X001795
X0017325Y00443
Y00418
X0016075
X0011075Y00493
X0009825
X0008575
X0007325
X000795Y005055
X00092
X001045
X00117
X001045Y005305
X00092
X000795
X0007325Y00543
X0004825
Y00568
Y00593
X0002325
X00017Y006055
X0002325Y00618
Y00643
X000295Y006555
X00042
X00017
Y006805
Y007055
Y005805
X0002325Y00568
X00017Y005555
Y005305
X0002325Y00518
X00017Y005055
X0002325Y00493
X00017Y004805
X0002325Y00468
X00017Y004555
X0002325Y00443
X00017Y004305
X0002325Y00418
X00092Y006305
X001045
Y008055
X00117
X001295
X00142
X001545
X00167
X001795
X00192
X002045
X00217
X002295
X00242
X002545
X00267
X002795
X0027325Y00818
X0026075
X0024825
X0023575
X0022325
X0021075
X0019825
X0018575
X0017325
X0016075
X0014825
X0013575
X0012325
X0011075
X0009825
X0008575
X0007325
X0006075
X0004825
X0003575
X0002325
X000295Y008305
X00042
X000545
X00067
X000795
X00092
X001045
X00117
X001295
X00142
X001545
X00167
X001795
X00192
X002045
X00217
X002295
X00242
X002545
X00267
X002795
X0027325Y00843
X0026075
X0024825
X0023575
X0022325
X0021075
X0019825
X0018575
X0017325
X0016075
X0014825
X0013575
X0012325
X0011075
X0009825
X0008575
X0007325
X0006075
X0004825
X0003575
X0002325
X000295Y008555
X00042
X000545
X00067
X000795
X00092
X001045
X00117
X001295
X00142
X001545
X00167
X001795
X00192
X002045
X00217
X002295
X00242
X002545
X00267
X002795
X0027325Y00868
X0026075
X0024825
X0023575
X0022325
X0021075
X0019825
X0018575
X0017325
X0016075
X0014825
X0013575
X0012325
X0011075
X0009825
X0008575
X0007325
X0006075
X0004825
X0003575
X0002325
X000295Y008805
X00042
X000545
X00067
X000795
X00092
X001045
X00117
X001295
X00142
X001545
X00167
X001795
X00192
X002045
X00217
X002295
X00242
X002545
X00267
X002795
X0027325Y00893
X0026075
X0024825
X0023575
X0022325
X0021075
X0019825
X0018575
X0017325
X0016075
X0014825
X0013575
X0012325
X0011075
X0009825
X0008575
X0007325
X0006075
X0004825
X0003575
X0002325
X000295Y009055
X00042
X000545
X00067
X000795
X00092
X001045
X00117
X001295
X00142
X001545
X00167
X001795
X00192
X002045
X00217
X002295
X00242
X002545
X00267
X002795
X0027325Y00918
X0026075
X0024825
X0023575
X0022325
X0021075
X0019825
X0018575
X0017325
X0016075
X0014825
X0013575
X0012325
X0011075
X0009825
X0008575
X0007325
X0006075
X0004825
X0003575
X0002325
X000295Y009305
X00042
X000545
X00067
X000795
X00092
X001045
X00117
X001295
X00142
X001545
X00167
X001795
X00192
X002045
X00217
X002295
X00242
X002545
X00267
X002795
X0027325Y00943
X0026075
X0024825
X0023575
X0022325
X0021075
X0019825
X0018575
X0017325
X0016075
X0014825
X0013575
X0012325
X0011075
X0009825
X0008575
X0007325
X0006075
X0004825
X0003575
X00042Y009555
X000545
X00067
X000795
X00092
X001045
X00117
X001295
X00142
X001545
X00167
X001795
X00192
X002045
X00217
X002295
X00242
X002545
X00267
X002795
X0027325Y00968
X0026075
X0024825
X0023575
X0022325
X0021075
X0019825
X0018575
X0017325
X0016075
X0014825
X0013575
X0012325
X0011075
X0009825
X0008575
X0007325
X0006075
X0004825
X0003575
X0002325
X000295Y009805
X00042
X000545
X00067
X000795
X00092
X001045
X00117
X001295
X00142
X001545
X00167
X001795
X00192
X002045
X00217
X002295
X00242
X002545
X00267
X002795
X00017
Y009555
X000295
X00017Y009055
Y008805
Y008555
Y008305
Y008055
X000295
X00042
X000545
X00067
X000795
X00092
X00292
X003045
X00317
X003295
X00342
X003545
X00367
X003795
X00392
X004045
X00417
X004295
X00442
X004545
X00467
X004795
X00492
X005045
X00517
X005295
X00542
X005545
X00567
X005795
X00592
X006045
X00617
X006295
X00642
X006545
X00667
X006795
X0067325Y00818
X0066075
X0064825
X0063575
X0062325
X0061075
X0059825
X0058575
X0057325
X0056075
X0054825
X0053575
X0052325
X0051075
X0049825
X0048575
X0047325
X0046075
X0044825
X0043575
X0042325
X0041075
X0039825
X0038575
X0037325
X0036075
X0034825
X0033575
X0032325
X0031075
X0029825
X0028575
X00292Y008305
X003045
X00317
X003295
X00342
X003545
X00367
X003795
X00392
X004045
X00417
X004295
X00442
X004545
X00467
X004795
X00492
X005045
X00517
X005295
X00542
X005545
X00567
X005795
X00592
X006045
X00617
X006295
X00642
X006545
X00667
X006795
X0067325Y00843
X0066075
X0064825
X0063575
X0062325
X0061075
X0059825
X0058575
X0057325
X0056075
X0054825
X0053575
X0052325
X0051075
X0049825
X0048575
X0047325
X0046075
X0044825
X0043575
X0042325
X0041075
X0039825
X0038575
X0037325
X0036075
X0034825
X0033575
X0032325
X0031075
X0029825
X0028575
X00292Y008555
X003045
X00317
X003295
X00342
X003545
X00367
X003795
X00392
X004045
X00417
X004295
X00442
X004545
X00467
X004795
X00492
X005045
X00517
X005295
X00542
X005545
X00567
X005795
X00592
X006045
X00617
X006295
X00642
X006545
X00667
X006795
X0067325Y00868
X0066075
X0064825
X0063575
X0062325
X0061075
X0059825
X0058575
X0057325
X0056075
X0054825
X0053575
X0052325
X0051075
X0049825
X0048575
X0047325
X0046075
X0044825
X0043575
X0042325
X0041075
X0039825
X0038575
X0037325
X0036075
X0034825
X0033575
X0032325
X0031075
X0029825
X0028575
X00292Y008805
X003045
X00317
X003295
X00342
X003545
X00367
X003795
X00392
X004045
X00417
X004295
X00442
X004545
X00467
X004795
X00492
X005045
X00517
X005295
X00542
X005545
X00567
X005795
X00592
X006045
X00617
X006295
X00642
X006545
X00667
X006795
X0067325Y00893
X0066075
X0064825
X0063575
X0062325
X0061075
X0059825
X0058575
X0057325
X0056075
X0054825
X0053575
X0052325
X0051075
X0049825
X0048575
X0047325
X0046075
X0044825
X0043575
X0042325
X0041075
X0039825
X0038575
X0037325
X0036075
X0034825
X0033575
X0032325
X0031075
X0029825
X0028575
X00292Y009055
X003045
X00317
X003295
X00342
X003545
X00367
X003795
X00392
X004045
X00417
X004295
X00442
X004545
X00467
X004795
X00492
X005045
X00517
X005295
X00542
X005545
X00567
X005795
X00592
X006045
X00617
X006295
X00642
X006545
X00667
X006795
X0067325Y00918
X0066075
X0064825
X0063575
X0062325
X0061075
X0059825
X0058575
X0057325
X0056075
X0054825
X0053575
X0052325
X0051075
X0049825
X0048575
X0047325
X0046075
X0044825
X004545Y009305
X00467
X004795
X00492
X005045
X00517
X005295
X00542
X005545
X00567
X005795
X00592
X006045
X00617
X006295
X00642
X006545
X00667
X006795
X0067325Y00943
X0066075
X0064825
X0063575
X0062325
X0061075
X0059825
X0058575
X0057325
X0056075
X0054825
X0053575
X0052325
X0051075
X0049825
X0048575
X0047325
X0046075
X00467Y009555
X004795
X00492
X005045
X00517
X005295
X00542
X005545
X00567
X005795
X00592
X006045
X00617
X006295
X00642
X006545
X00667
X006795
X0067325Y00968
X0066075
X0064825
X0063575
X0062325
X0061075
X0059825
X0058575
X0057325
X0056075
X0054825
X0053575
X0052325
X0051075
X0049825
X0048575
X0047325
X0046075
X00467Y009805
X004795
X00492
X005045
X00517
X005295
X00542
X005545
X00567
X005795
X00592
X006045
X00617
X006295
X00642
X006545
X00667
X006795
X004545
X00442
X00392
X003795
X00367
X003545
X00342
X003295
X00317
X003045
X00292
X0029825Y00968
X0031075
X0032325
X0033575
X0034825
X0036075
X0037325
X00367Y009555
X003545
X00342
X003295
X00317
X003045
X00292
X0029825Y00943
X0028575
X00292Y009305
X003045
X0031075Y00918
X0032325
X0033575
X0034825
X0036075
X0037325
X0038575
X003795Y009305
X00367
X003545
X00342
X003295
X0033575Y00943
X0034825
X0036075
X0037325
X0029825Y00918
X0028575
Y00968
X0068575
X0069825
X0071075
X0072325
X0073575
X0074825
X0076075
X0077325
X0078575
X0079825
X0081075
X0082325
X0083575
X0084825
X008545Y009805
X00867
X00842
X008295
X00817
X008045
X00792
X007795
X00767
X007545
X00742
X007295
X00717
X007045
X00692
Y009555
X007045
X00717
X007295
X00742
X007545
X00767
X007795
X00792
X008045
X00817
X008295
X00842
X008545
X0084825Y00943
X0083575
X0082325
X0081075
X0079825
X0078575
X0077325
X0076075
X0074825
X0073575
X0072325
X0071075
X0069825
X0068575
X00692Y009305
X007045
X00717
X007295
X00742
X007545
X00767
X007795
X00792
X008045
X00817
X008295
X00842
X008545
X0086075Y00918
X0084825
X0083575
X0082325
X0081075
X0079825
X0078575
X0077325
X0076075
X0074825
X0073575
X0072325
X0071075
X0069825
X0068575
X00692Y009055
X007045
X00717
X007295
X00742
X007545
X00767
X007795
X00792
X008045
X00817
X008295
X00842
X008545
X00867
X008795
Y008805
X00892
X009045
X00917
X009295
X00942
X009545
X00967
X0097325Y00893
X0096075
X0094825
X0093575
X0092325
X0091075
X0089825
Y00868
X0091075
X0092325
X0093575
X0094825
X0096075
X0097325
Y00843
X0096075
X0094825
X0093575
X0092325
X009295Y008305
X00942
X009545
X00967
X009795
X0098575Y00818
X0097325
X0096075
X0094825
X0093575
X0092325
X0091075
X0089825
X009045Y008305
X00917
Y008055
X009295
X00942
X009545
X00967
X009795
X009045
X00892
X008795
Y008305
X00867
X008545
X00842
X008295
X0083575Y00818
X0084825
X0086075
X008545Y008055
X00842
X008295
X00817
X008045
Y008305
X00792
X007795
X00767
X007545
X00742
X007295
X00717
X007045
X00692
X0069825Y00843
X0071075
X0072325
X0073575
X0074825
X0076075
X0077325
X0078575
X0079825
X0081075
X00817Y008555
X008295
X0083575Y00868
X0082325
X0081075
X0079825
X0078575
X0077325
X0076075
X0074825
X0073575
X0072325
X0071075
X0069825
X0068575
X00692Y008805
X007045
X00717
X007295
X00742
X007545
X00767
X007795
X00792
X008045
X00817
X008295
X00842
X008545
X0086075Y00893
X0084825
X0083575
X0082325
X0081075
X0079825
X0078575
X0077325
X0076075
X0074825
X0073575
X0072325
X0071075
X0069825
X0068575
X00692Y008555
X007045
X00717
X007295
X00742
X007545
X00767
X007795
X00792
X008045
X008545
X00867
X008795
X00892
X009045
X0088575Y00868
X0087325
Y00843
X0088575
X0086075
X0084825
X0082325Y00818
X0078575
X0077325
X0076075
X0074825
X0073575
X0072325
X0071075
X0069825
X0068575
X00692Y008055
X007045
X00717
X007295
X00742
X007545
X00767
X007795
X0068575Y00843
X0092325Y00918
X0093575
X0094825
X0096075
X0097325
X0098575
X009795Y009305
X00967
X009545
X00942
X009295
X0093575Y00943
X0094825
X0096075
X0097325
X0098575
X009795Y009555
X00967
X009545
X00942
X0094825Y00968
X0096075
X0097325
X0098575
X009795Y009805
X00967
X009545
X00942
X009295
X0093575Y00968
T02
X001625Y000225
Y000375
Y001375
Y001525
Y002475
Y002625
Y003575
Y003725
X003125Y003775
Y003925
Y002825
Y002675
Y0017
Y00155
X00315Y000625
Y000475
X004251Y001475
Y001725
X005625Y001725
Y001225
X0061Y00125
X0066
X006625Y0028
X006125
X00465Y002825
Y003075
X0074Y002275
Y002025
X00735Y00125
X0076
X003125Y004875
Y005025
X001625Y004825
Y004675
X002225Y006025
Y006525
T03
X00515Y002825
Y003025
X007375Y000825
Y000625
X0014Y006425
X0012
T04
X0019845Y000219
Y000473
Y000727
Y000981
Y001371
Y001625
Y001879
Y002133
Y002469
Y002723
Y002977
Y003231
Y003569
Y003823
Y004077
X0027655
Y003823
Y003569
Y003231
Y002977
Y002723
Y002469
Y002133
Y001879
Y001625
Y001371
Y000981
Y000727
Y000473
Y000219
X0059595Y001644
Y001898
Y002152
Y002406
X0067405
Y002152
Y001898
Y001644
X0027655Y004331
Y004669
Y004923
Y005177
Y005431
X0019845
Y005177
Y004923
Y004669
Y004331
T05
X004925Y000625
X005225
X00585Y000525
Y00085
X004625Y00105
X004925Y001725
X005225
X00565Y002125
X004625Y00215
X00465Y002475
X00355
X00565Y003225
X007025Y0035
Y0024
Y0022
X007275Y001625
X007025Y0011
X00695Y00085
Y000525
X008375Y001625
T06
X002875Y0061
Y00645
X0007Y0063
X00035
T07
X007542Y000225
X007796
X00805
X008304
X008558
X008175Y000775
X007921
X003754Y00645
X0035
T08
X0098479Y0010087
Y0012627
Y0015167
X00585691Y0047333
Y0049873
Y0052413
X0098479Y0085087
Y0087627
Y0090167
T09
X000321Y000713
Y000967
Y001221
Y001475
Y001729
Y001983
X000575
Y002237
X000321
Y002491
X000575
Y002745
X000321
Y002999
Y003253
Y003507
Y003761
Y004015
X000575
Y003761
Y003507
Y003253
Y002999
Y001729
Y001475
Y001221
Y000967
Y000713
Y004269
X000321
Y004523
Y004777
Y005031
Y005285
Y005539
X000575
Y005285
Y005031
Y004777
Y004523
T10
X00315Y0074
X00015
Y0094
X00315
T11
X00407891Y0045174
Y0054826
T12
X0011Y0009
X00905Y00095
X004175Y009475
X00895Y0095
M30
